<?xml version="1.0" standalone="no"?><!DOCTYPE svg PUBLIC "-//W3C//DTD SVG 1.1//EN" "http://www.w3.org/Graphics/SVG/1.1/DTD/svg11.dtd"><svg t="1718334249246" class="icon" viewBox="0 0 1024 1024" version="1.1" xmlns="http://www.w3.org/2000/svg" p-id="2844" xmlns:xlink="http://www.w3.org/1999/xlink" width="16" height="16"><path d="M310.464 728.896c129.824 129.856 335.872 137.056 474.144 21.632l125.472 125.44a16 16 0 0 0 22.624 0l22.624-22.624a16 16 0 0 0 0-22.624l-125.44-125.44c115.424-138.304 108.224-344.32-21.632-474.176-137.472-137.472-360.32-137.472-497.792 0-137.472 137.472-137.472 360.32 0 497.792z m45.248-452.544A288 288 0 0 1 763.456 683.2l-0.896 0.896A288 288 0 0 1 355.712 276.352zM64 688a16 16 0 0 1 16-16h96a16 16 0 0 1 16 16v32a16 16 0 0 1-16 16h-96a16 16 0 0 1-16-16v-32zM64 848a16 16 0 0 1 16-16h288a16 16 0 0 1 16 16v32a16 16 0 0 1-16 16h-288a16 16 0 0 1-16-16v-32z" fill="#000000" p-id="2845"></path></svg>