<?xml version="1.0" standalone="no"?><!DOCTYPE svg PUBLIC "-//W3C//DTD SVG 1.1//EN" "http://www.w3.org/Graphics/SVG/1.1/DTD/svg11.dtd"><svg t="1718343721378" class="icon" viewBox="0 0 1024 1024" version="1.1" xmlns="http://www.w3.org/2000/svg" p-id="3033" xmlns:xlink="http://www.w3.org/1999/xlink" width="16" height="16"><path d="M886.334 851.781c-15.156 16.316-36.62 20.863-47.956 10.039L709.646 738.73c-27.63 16.02-59.133 24.48-91.227 24.5-102.406 0-185.473-84.357-185.473-188.412 0-104.049 83.015-188.422 185.473-188.422 102.459 0 185.477 84.361 185.477 188.422 0.063 38.998-11.981 77.09-34.537 109.201l123.947 118.496c11.283 10.86 8.184 32.911-6.972 49.266zM618.419 449.205c-68.277 0-123.613 56.229-123.613 125.614s55.348 125.607 123.613 125.607c68.267 0 123.618-56.234 123.618-125.607 0-69.369-55.336-125.614-123.618-125.614zM247.573 669.018h154.521v62.76H247.573v-62.76z m0-125.614v-62.758h123.618v62.758H247.573z m0-282.622h432.653v62.758H247.573v-62.758z m494.464 134.3V198.023c0-17.333-13.843-31.378-30.907-31.378H216.67c-17.065 0-30.904 14.058-30.904 31.378v628.039c0 17.348 13.839 31.379 30.904 31.379h494.46a30.049 30.049 0 0 0 14.418-3.766c17.216 35.512 43.155 57.979 70.85 55.404-5.71 6.984-14.331 11.072-23.457 11.119H154.812c-17.077 0-30.903-14.07-30.903-31.379v-753.64c0-17.348 13.839-31.379 30.903-31.379H772.89c17.076 0 30.903 14.058 30.903 31.379v318.806c-20.93-26.645-43.632-47.594-61.756-58.903z m0 0" p-id="3034"></path></svg>