<?xml version="1.0" standalone="no"?><!DOCTYPE svg PUBLIC "-//W3C//DTD SVG 1.1//EN" "http://www.w3.org/Graphics/SVG/1.1/DTD/svg11.dtd"><svg t="1718178946562" class="icon" viewBox="0 0 1024 1024" version="1.1" xmlns="http://www.w3.org/2000/svg" p-id="3934" width="16" height="16" xmlns:xlink="http://www.w3.org/1999/xlink"><path d="M469.333333 512a42.666667 42.666667 0 0 1 42.666667-42.666667h384a42.666667 42.666667 0 0 1 42.666667 42.666667v256a42.666667 42.666667 0 0 1-42.666667 42.666667h-149.333333v42.666666h85.333333v85.333334H576v-85.333334h85.333333v-42.666666h-149.333333a42.666667 42.666667 0 0 1-42.666667-42.666667V512z m85.333334 42.666667v170.666666h298.666666v-170.666666H554.666667zM128 853.333333a42.666667 42.666667 0 0 0 42.666667 42.666667h170.666666v-85.333333h-128v-128H128v170.666666zM896 170.666667a42.666667 42.666667 0 0 0-42.666667-42.666667h-170.666666v85.333333h128v128h85.333333V170.666667zM192.917333 318.037333C172.224 329.856 170.666667 339.690667 170.666667 341.333333c0 1.642667 1.557333 11.477333 22.250666 23.296 19.477333 11.136 49.237333 19.370667 84.416 19.370667 35.2 0 64.938667-8.234667 84.416-19.370667C382.442667 352.810667 384 342.976 384 341.333333c0-1.642667-1.557333-11.477333-22.250667-23.296C342.272 306.901333 312.533333 298.666667 277.333333 298.666667c-35.2 0-64.938667 8.234667-84.416 19.370666z m-42.346666-74.090666C185.130667 224.213333 230.037333 213.333333 277.333333 213.333333s92.202667 10.88 126.762667 30.613334C437.461333 263.04 469.333333 295.850667 469.333333 341.333333c0 45.482667-31.872 78.314667-65.237333 97.386667C369.536 458.453333 324.629333 469.333333 277.333333 469.333333s-92.202667-10.88-126.762666-30.613333C117.205333 419.626667 85.333333 386.816 85.333333 341.333333c0-45.482667 31.872-78.314667 65.237334-97.386666z" fill="#e6e6e6" p-id="3935"></path><path d="M426.666667 213.333333c0 47.146667-66.858667 85.333333-149.333334 85.333334s-149.333333-38.186667-149.333333-85.333334 66.858667-85.333333 149.333333-85.333333 149.333333 38.186667 149.333334 85.333333z" fill="#e6e6e6" p-id="3936"></path><path d="M192.917333 190.037333C172.224 201.856 170.666667 211.690667 170.666667 213.333333c0 1.642667 1.557333 11.477333 22.250666 23.296 19.477333 11.136 49.237333 19.370667 84.416 19.370667 35.2 0 64.938667-8.234667 84.416-19.370667C382.442667 224.810667 384 214.976 384 213.333333c0-1.642667-1.557333-11.477333-22.250667-23.296C342.272 178.901333 312.533333 170.666667 277.333333 170.666667c-35.2 0-64.938667 8.234667-84.416 19.370666zM150.570667 115.946667C185.130667 96.213333 230.037333 85.333333 277.333333 85.333333s92.202667 10.88 126.762667 30.613334C437.461333 135.04 469.333333 167.850667 469.333333 213.333333c0 45.482667-31.872 78.314667-65.237333 97.386667C369.536 330.453333 324.629333 341.333333 277.333333 341.333333s-92.202667-10.88-126.762666-30.613333C117.205333 291.626667 85.333333 258.816 85.333333 213.333333c0-45.482667 31.872-78.314667 65.237334-97.386666z" fill="#e6e6e6" p-id="3937"></path></svg>