<?xml version="1.0" standalone="no"?><!DOCTYPE svg PUBLIC "-//W3C//DTD SVG 1.1//EN" "http://www.w3.org/Graphics/SVG/1.1/DTD/svg11.dtd"><svg t="1718197578009" class="icon" viewBox="0 0 1024 1024" version="1.1" xmlns="http://www.w3.org/2000/svg" p-id="7118" xmlns:xlink="http://www.w3.org/1999/xlink" width="16" height="16"><path d="M307.2 281.6c0-30.72 20.48-51.2 51.2-51.2h307.2c30.72 0 51.2 20.48 51.2 51.2v51.2c0 30.72-20.48 51.2-51.2 51.2H358.4c-30.72 0-51.2-20.48-51.2-51.2v-51.2z m-128 563.2v-716.8h665.6V460.8H921.6V102.4c0-30.72-20.48-51.2-51.2-51.2H153.6c-30.72 0-51.2 20.48-51.2 51.2v768c0 30.72 20.48 51.2 51.2 51.2h307.2v-76.8H179.2z" p-id="7119"></path><path d="M942.08 911.36c-20.48 35.84-51.2 66.56-81.92 81.92-35.84 20.48-76.8 30.72-112.64 30.72s-81.92-10.24-112.64-30.72c-35.84-20.48-66.56-51.2-81.92-81.92-20.48-35.84-30.72-76.8-30.72-112.64s10.24-81.92 30.72-112.64c20.48-35.84 51.2-66.56 81.92-81.92 35.84-20.48 76.8-30.72 112.64-30.72v230.4l194.56 107.52zM793.6 512c40.96 0 81.92 10.24 112.64 30.72 35.84 20.48 66.56 51.2 81.92 81.92 20.48 35.84 30.72 76.8 30.72 112.64s-10.24 81.92-30.72 112.64l-199.68-112.64V512z" p-id="7120"></path></svg>