<?xml version="1.0" standalone="no"?><!DOCTYPE svg PUBLIC "-//W3C//DTD SVG 1.1//EN" "http://www.w3.org/Graphics/SVG/1.1/DTD/svg11.dtd"><svg t="1718258779337" class="icon" viewBox="0 0 1024 1024" version="1.1" xmlns="http://www.w3.org/2000/svg" p-id="10674" xmlns:xlink="http://www.w3.org/1999/xlink" width="16" height="16"><path d="M886.8 288.1l34.1 32.7c27 28.2 46.2 35.8 35.4 95.4-10.8 59.3-62.9 384.9-70.7 428.9-8.3 47.3-53.5 47.7-55.5 47.7H193.7s-47 0.7-55.6-47.7c-7.7-44-59.9-369.6-70.6-428.9-10.9-59.6 8.4-67.2 35.3-95.4l34.2-32.7v84.7h749.8v-84.7zM687.3 493.7c-23.4 0-42.3 19-42.3 42.3v78.6c0 6.7-5.4 12.1-12.1 12.1H391c-6.7 0-12.1-5.4-12.1-12.1V536c0-23.4-19-42.3-42.3-42.3s-42.3 19-42.3 42.3v127c0 12.8 5.1 25.1 14.2 34.2 9.1 9.1 21.4 14.2 34.2 14.2h338.6c12.8 0 25.1-5.1 34.2-14.2 9.1-9.1 14.2-21.4 14.2-34.2V536c-0.1-23.3-19.1-42.3-42.4-42.3z m92.4-253.9s46.6 0 46.6 42.3v42.3H197.5v-42.3c0-42.3 46.6-42.3 46.6-42.3h535.6z m-73.1-108.9s47.2 0 47.2 60.5H282.1c0-60.5 47.1-60.5 47.1-60.5h377.4z m0 0" p-id="10675"></path></svg>