<?xml version="1.0" standalone="no"?><!DOCTYPE svg PUBLIC "-//W3C//DTD SVG 1.1//EN" "http://www.w3.org/Graphics/SVG/1.1/DTD/svg11.dtd"><svg t="1718197846704" class="icon" viewBox="0 0 1024 1024" version="1.1" xmlns="http://www.w3.org/2000/svg" p-id="11346" xmlns:xlink="http://www.w3.org/1999/xlink" width="16" height="16"><path d="M871.936 369.757091v525.125818c0 24.203636-19.595636 43.752727-43.752727 43.752727H171.752727a43.752727 43.752727 0 0 1-43.752727-43.752727V369.757091h743.936z m-240.686545 306.362182H368.686545a21.876364 21.876364 0 0 0-21.550545 17.92l-0.325818 3.956363v21.876364a21.876364 21.876364 0 0 0 17.92 21.504l3.956363 0.372364h262.56291a21.876364 21.876364 0 0 0 21.550545-17.966546l0.325818-3.909818v-21.876364a21.876364 21.876364 0 0 0-21.876363-21.876363z m0-175.057455H368.686545a21.876364 21.876364 0 0 0-21.550545 17.92l-0.325818 3.956364v21.876363a21.876364 21.876364 0 0 0 17.92 21.550546l3.956363 0.325818h262.56291a21.876364 21.876364 0 0 0 21.550545-17.92l0.325818-3.956364v-21.876363a21.876364 21.876364 0 0 0-21.876363-21.876364zM390.562909 85.317818v43.752727h218.763636v-43.752727h87.552v43.752727h131.258182c24.203636 0 43.752727 19.595636 43.752728 43.752728v131.304727H128v-131.258182c0-24.203636 19.549091-43.752727 43.752727-43.752727h131.258182v-43.752727h87.552z" fill="#3B8DFF" p-id="11347"></path></svg>