<?xml version="1.0" standalone="no"?><!DOCTYPE svg PUBLIC "-//W3C//DTD SVG 1.1//EN" "http://www.w3.org/Graphics/SVG/1.1/DTD/svg11.dtd"><svg t="1718197503977" class="icon" viewBox="0 0 1024 1024" version="1.1" xmlns="http://www.w3.org/2000/svg" p-id="5918" xmlns:xlink="http://www.w3.org/1999/xlink" width="16" height="16"><path d="M307.2 4.608l290.304 173.568c2.56-1.536 5.632-3.072 8.192-4.096l161.792-90.624c20.992-7.168 44.032 3.584 52.224 24.064l54.784 138.24H934.912c38.4 0 70.144 31.232 70.144 70.144v586.752c0 38.4-31.232 69.632-69.632 70.144H88.576C50.176 972.8 18.944 941.568 18.944 903.168V315.904C18.944 277.504 50.176 245.76 88.576 245.76H136.192L250.88 22.528c10.752-20.48 35.84-28.16 56.32-17.92z m420.864 646.144H252.928c-28.16 0-41.984 13.824-41.984 41.984 0 24.576 10.752 38.4 32.256 41.472l9.728 0.512h475.136c27.648 0 41.984-13.824 41.984-41.984 0-28.16-13.824-41.984-41.984-41.984z m-181.76-166.4H252.928c-28.16 0-41.984 13.824-41.984 41.984 0 24.576 10.752 38.4 32.256 41.472l9.728 0.512h293.376c27.648 0 41.984-13.824 41.984-41.984 0-27.648-13.824-41.984-41.984-41.984zM786.432 246.272l-28.672-71.68-80.384 51.2 34.304 20.48H786.432z m-479.744-148.48l-76.288 148.48h321.536l-245.248-148.48z" p-id="5919"></path></svg>