<?xml version="1.0" standalone="no"?><!DOCTYPE svg PUBLIC "-//W3C//DTD SVG 1.1//EN" "http://www.w3.org/Graphics/SVG/1.1/DTD/svg11.dtd"><svg t="1718197405311" class="icon" viewBox="0 0 1024 1024" version="1.1" xmlns="http://www.w3.org/2000/svg" p-id="3898" xmlns:xlink="http://www.w3.org/1999/xlink" width="16" height="16"><path d="M1013.36 290.13H851.43l-63.5-179.79-188.73 56.81L353.78 0 176.15 290.13H10.64v212.31h96.92V1024h808.88V502.44h96.92z m-261.5-108.68l38.38 108.68h-10.46l-119.22-81.2z m-74.58 108.68H452.17l62.16-111zM371.36 81.78l95.1 64.76-80.41 143.59H243.8z m487.38 884.53H165.26V502.44h693.48z m96.93-521.56H68.33v-96.93h887.34z" p-id="3899"></path><path d="M690.28 563.6H333.72v173.08h356.56zM632.58 679H391.42v-57.7h241.16zM346.765 178.199l26.543-39.235 47.783 32.327-26.544 39.234zM300.598 253.207l26.544-39.234 47.782 32.326-26.544 39.235z" p-id="3900"></path></svg>