<?xml version="1.0" standalone="no"?><!DOCTYPE svg PUBLIC "-//W3C//DTD SVG 1.1//EN" "http://www.w3.org/Graphics/SVG/1.1/DTD/svg11.dtd"><svg t="1718258732613" class="icon" viewBox="0 0 1024 1024" version="1.1" xmlns="http://www.w3.org/2000/svg" p-id="9608" xmlns:xlink="http://www.w3.org/1999/xlink" width="16" height="16"><path d="M627.55328 378.48064c-37.31456-37.31456-88.20224-55.97696-137.39008-55.97696S391.7824 341.16096 354.46784 378.48064c-74.63424 74.63424-74.63424 198.45632 0 273.09056 74.63424 74.63424 198.45632 74.63424 273.09056 0 74.62912-74.63936 74.62912-198.46144-0.00512-273.09056z" fill="" p-id="9609"></path><path d="M1020.17536 884.10624V247.10144c0-77.37856-70.4256-70.12864-70.4256-70.12864s-420.66432 0.49664-398.4128 0c-24.13568 0.49664-36.05504-12.61568-36.05504-12.61568s-16.78848-28.80512-46.88384-74.39872c-31.58528-47.77984-68.14208-39.93088-68.14208-39.93088h-310.016C4.32128 50.02752 3.328 132.66944 3.328 132.66944v747.1616c0 92.18048 69.632 80.75776 69.632 80.75776h883.1488c74.496 0 64.06656-76.48256 64.06656-76.48256z m-262.016-101.92896c-10.17856 11.87328-27.14112 11.87328-37.31456 0l-84.80768-84.8128c-0.27136-0.27136-0.45568-0.59392-0.71168-0.87552-41.71776 34.11456-94.0544 51.7632-145.16224 51.7632-59.3664 0-118.7328-22.05184-164.5312-67.85024-89.89696-91.5968-89.89696-239.16544 0-330.76224 91.5968-91.5968 239.16544-91.5968 329.0624 0 85.25824 85.25824 91.1104 218.98752 17.65376 309.58592 0.32256 0.29184 0.69632 0.50688 1.00352 0.8192l84.8128 84.8128c10.17344 10.17856 10.17344 27.14112-0.00512 37.31968z" fill="" p-id="9610"></path></svg>