<?xml version="1.0" standalone="no"?><!DOCTYPE svg PUBLIC "-//W3C//DTD SVG 1.1//EN" "http://www.w3.org/Graphics/SVG/1.1/DTD/svg11.dtd"><svg t="1718197443788" class="icon" viewBox="0 0 1024 1024" version="1.1" xmlns="http://www.w3.org/2000/svg" p-id="4911" xmlns:xlink="http://www.w3.org/1999/xlink" width="16" height="16"><path d="M256 981.333333H106.666667a42.666667 42.666667 0 0 1-42.666667-42.666666V85.333333a42.666667 42.666667 0 0 1 42.666667-42.666666h149.333333a42.666667 42.666667 0 0 1 42.666667 42.666666v853.333334a42.666667 42.666667 0 0 1-42.666667 42.666666zM106.666667 85.333333v853.333334h149.333333V85.333333z" p-id="4912"></path><path d="M213.333333 853.333333H149.333333a21.333333 21.333333 0 0 1 0-42.666666h64a21.333333 21.333333 0 0 1 0 42.666666zM213.333333 768H149.333333a21.333333 21.333333 0 0 1 0-42.666667h64a21.333333 21.333333 0 0 1 0 42.666667zM213.333333 256H149.333333a21.333333 21.333333 0 0 1 0-42.666667h64a21.333333 21.333333 0 0 1 0 42.666667zM533.333333 981.333333h-149.333333a42.666667 42.666667 0 0 1-42.666667-42.666666V85.333333a42.666667 42.666667 0 0 1 42.666667-42.666666h149.333333a42.666667 42.666667 0 0 1 42.666667 42.666666v853.333334a42.666667 42.666667 0 0 1-42.666667 42.666666zM384 85.333333v853.333334h149.333333V85.333333z" p-id="4913"></path><path d="M490.666667 853.333333h-64a21.333333 21.333333 0 0 1 0-42.666666h64a21.333333 21.333333 0 0 1 0 42.666666zM490.666667 768h-64a21.333333 21.333333 0 0 1 0-42.666667h64a21.333333 21.333333 0 0 1 0 42.666667zM490.666667 256h-64a21.333333 21.333333 0 0 1 0-42.666667h64a21.333333 21.333333 0 0 1 0 42.666667zM804.266667 987.733333a42.666667 42.666667 0 0 1-42.666667-34.773333L606.72 113.92a42.666667 42.666667 0 0 1 6.826667-32A42.666667 42.666667 0 0 1 641.066667 64l146.773333-27.306667a42.666667 42.666667 0 0 1 49.706667 34.133334l155.733333 839.04a42.666667 42.666667 0 0 1-6.826667 32A42.666667 42.666667 0 0 1 960 960l-146.986667 27.306667a47.36 47.36 0 0 1-8.746666 0.426666z m-8.746667-908.8L648.746667 106.666667l155.733333 839.04L951.253333 917.333333z" p-id="4914"></path><path d="M826.88 853.333333a21.333333 21.333333 0 0 1-3.84-42.666666l64-11.733334a21.333333 21.333333 0 1 1 7.68 42.666667l-64 11.52a11.733333 11.733333 0 0 1-3.84 0.213333zM810.666667 769.92a21.333333 21.333333 0 0 1-3.84-42.666667l62.933333-11.733333a21.333333 21.333333 0 0 1 7.68 42.666667l-62.933333 11.52zM717.866667 266.453333a21.333333 21.333333 0 0 1-3.84-42.666666l64-11.733334a21.333333 21.333333 0 0 1 7.893333 42.666667l-62.933333 11.733333z" p-id="4915"></path></svg>