<?xml version="1.0" standalone="no"?><!DOCTYPE svg PUBLIC "-//W3C//DTD SVG 1.1//EN" "http://www.w3.org/Graphics/SVG/1.1/DTD/svg11.dtd"><svg t="1718258830291" class="icon" viewBox="0 0 1024 1024" version="1.1" xmlns="http://www.w3.org/2000/svg" p-id="12768" xmlns:xlink="http://www.w3.org/1999/xlink" width="16" height="16"><path d="M644.266667 661.333333c4.266667-8.533333 17.066667-12.8 29.866666-8.533333l38.4 21.333333 42.666667-72.533333-51.2-29.866667c-12.8-8.533333-21.333333-25.6-21.333333-42.666666v-38.4c0-17.066667 4.266667-34.133333 21.333333-42.666667l51.2-29.866667-42.666667-72.533333-51.2 29.866667c-17.066667 8.533333-34.133333 8.533333-46.933333 0-8.533333-8.533333-21.333333-12.8-34.133333-17.066667-17.066667-8.533333-25.6-25.6-25.6-42.666667V256h-85.333334v59.733333c0 17.066667-8.533333 34.133333-25.6 38.4-4.266667 4.266667-12.8 4.266667-17.066666 8.533334s-12.8 8.533333-17.066667 12.8c-12.8 8.533333-29.866667 8.533333-46.933333 0l-51.2-29.866667-42.666667 72.533333 51.2 29.866667c12.8 8.533333 21.333333 25.6 21.333333 42.666667v38.4c0 17.066667-4.266667 34.133333-21.333333 42.666666l-51.2 29.866667 42.666667 72.533333 51.2-29.866666c17.066667-4.266667 34.133333-4.266667 46.933333 4.266666 8.533333 8.533333 21.333333 12.8 34.133333 17.066667 17.066667 8.533333 25.6 21.333333 25.6 38.4V768h85.333334v-59.733333c0-8.533333 8.533333-12.8 12.8-12.8H580.266667c12.8 8.533333 17.066667 17.066667 17.066666 34.133333v38.4c0 25.6-17.066667 42.666667-42.666666 42.666667h-85.333334c-25.6 0-42.666667-17.066667-42.666666-42.666667v-38.4c0-12.8-8.533333-29.866667-21.333334-34.133333-12.8-8.533333-29.866667-8.533333-42.666666 0l-29.866667 17.066666c-21.333333 12.8-46.933333 4.266667-59.733333-17.066666l-42.666667-72.533334c-12.8-21.333333-4.266667-46.933333 17.066667-59.733333l29.866666-17.066667c12.8-4.266667 21.333333-21.333333 21.333334-34.133333 0-12.8-8.533333-29.866667-21.333334-34.133333l-29.866666-17.066667c-21.333333-12.8-25.6-38.4-17.066667-59.733333l42.666667-72.533334c12.8-21.333333 38.4-29.866667 59.733333-17.066666l29.866667 17.066666c12.8 8.533333 29.866667 8.533333 42.666666 0 12.8-8.533333 21.333333-21.333333 21.333334-34.133333V256c0-25.6 17.066667-42.666667 42.666666-42.666667h85.333334c25.6 0 42.666667 17.066667 42.666666 42.666667v38.4c0 12.8 8.533333 29.866667 21.333334 34.133333 12.8 8.533333 29.866667 8.533333 42.666666 0l29.866667-17.066666c21.333333-12.8 46.933333-4.266667 59.733333 17.066666l42.666667 72.533334c12.8 21.333333 4.266667 46.933333-17.066667 59.733333l-51.2 25.6v46.933333l51.2 29.866667c21.333333 12.8 25.6 38.4 17.066667 59.733333l-42.666667 72.533334c-12.8 21.333333-38.4 25.6-59.733333 17.066666l-38.4-21.333333c-8.533333-4.266667-12.8-17.066667-8.533333-29.866667z" p-id="12769"></path><path d="M512 618.666667c-59.733333 0-106.666667-46.933333-106.666667-106.666667s46.933333-106.666667 106.666667-106.666667 106.666667 46.933333 106.666667 106.666667-46.933333 106.666667-106.666667 106.666667z m0-42.666667c34.133333 0 64-29.866667 64-64s-29.866667-64-64-64-64 29.866667-64 64 29.866667 64 64 64z" p-id="12770"></path></svg>